<?xml version="1.0" encoding="UTF-8" standalone="no"?>
<!-- Created with Inkscape (http://www.inkscape.org/) -->

<svg
   xmlns:dc="http://purl.org/dc/elements/1.1/"
   xmlns:cc="http://creativecommons.org/ns#"
   xmlns:rdf="http://www.w3.org/1999/02/22-rdf-syntax-ns#"
   xmlns:svg="http://www.w3.org/2000/svg"
   xmlns="http://www.w3.org/2000/svg"
   xmlns:sodipodi="http://sodipodi.sourceforge.net/DTD/sodipodi-0.dtd"
   xmlns:inkscape="http://www.inkscape.org/namespaces/inkscape"
   width="100"
   height="100"
   id="svg7668"
   version="1.1"
   inkscape:version="0.48.4 r9939"
   sodipodi:docname="motosvg.svg">
  <defs
     id="defs7670">
    <clipPath
       id="SVGID_2_">
      <rect
         height="1698.1"
         width="2267.7"
         y="1870"
         x="-2764.6001"
         id="use11" />
    </clipPath>
    <clipPath
       id="clipPath6851">
      <rect
         height="1698.1"
         width="2267.7"
         y="1870"
         x="-2764.6001"
         id="use6853" />
    </clipPath>
  </defs>
  <sodipodi:namedview
     id="base"
     pagecolor="#ffffff"
     bordercolor="#666666"
     borderopacity="1.0"
     inkscape:pageopacity="0.0"
     inkscape:pageshadow="2"
     inkscape:zoom="0.7"
     inkscape:cx="411.42857"
     inkscape:cy="233.12724"
     inkscape:document-units="px"
     inkscape:current-layer="layer1"
     showgrid="false"
     inkscape:window-width="1920"
     inkscape:window-height="1056"
     inkscape:window-x="0"
     inkscape:window-y="24"
     inkscape:window-maximized="1"
     height="765px" />
  <metadata
     id="metadata7673">
    <rdf:RDF>
      <cc:Work
         rdf:about="">
        <dc:format>image/svg+xml</dc:format>
        <dc:type
           rdf:resource="http://purl.org/dc/dcmitype/StillImage" />
        <dc:title></dc:title>
      </cc:Work>
    </rdf:RDF>
  </metadata>
  <g
     inkscape:label="Layer 1"
     inkscape:groupmode="layer"
     id="layer1"
     transform="translate(0,-952.36233)">
    <g
       transform="matrix(0.78739108,0,0,0.78739108,756.45537,-1736.1955)"
       id="g2900">
      <circle
         d="m -928.10001,3522.7 c 0,8.0633 -6.53664,14.6 -14.6,14.6 -8.06336,0 -14.6,-6.5367 -14.6,-14.6 0,-8.0634 6.53664,-14.6 14.6,-14.6 8.06336,0 14.6,6.5366 14.6,14.6 z"
         style="fill:#010101"
         sodipodi:ry="14.6"
         sodipodi:rx="14.6"
         sodipodi:cy="3522.7"
         sodipodi:cx="-942.70001"
         id="circle2902"
         r="14.6"
         cy="3522.7"
         cx="-942.70001"
         class="st93" />
    </g>
    <g
       transform="matrix(0.78739108,0,0,0.78739108,756.45537,-1736.1955)"
       id="g2904">
      <circle
         d="m -931.80001,3522.7 c 0,6.0199 -4.8801,10.9 -10.9,10.9 -6.01991,0 -10.9,-4.8801 -10.9,-10.9 0,-6.02 4.88009,-10.9 10.9,-10.9 6.0199,0 10.9,4.88 10.9,10.9 z"
         style="fill:#4e4e4e"
         sodipodi:ry="10.9"
         sodipodi:rx="10.9"
         sodipodi:cy="3522.7"
         sodipodi:cx="-942.70001"
         id="circle2906"
         r="10.9"
         cy="3522.7"
         cx="-942.70001"
         class="st94" />
    </g>
    <g
       transform="matrix(0.78739108,0,0,0.78739108,756.45537,-1736.1955)"
       id="g2908">
      <circle
         d="m -933.80001,3522.7 c 0,4.9153 -3.98467,8.9 -8.9,8.9 -4.91534,0 -8.9,-3.9847 -8.9,-8.9 0,-4.9154 3.98466,-8.9 8.9,-8.9 4.91533,0 8.9,3.9846 8.9,8.9 z"
         style="fill:#f2f2f2"
         sodipodi:ry="8.8999996"
         sodipodi:rx="8.8999996"
         sodipodi:cy="3522.7"
         sodipodi:cx="-942.70001"
         id="circle2910"
         r="8.8999996"
         cy="3522.7"
         cx="-942.70001"
         class="st95" />
    </g>
    <g
       transform="matrix(0.78739108,0,0,0.78739108,756.45537,-1736.1955)"
       id="g2912">
      <circle
         d="m -936.40001,3522.7 c 0,3.4793 -2.82061,6.3 -6.3,6.3 -3.4794,0 -6.3,-2.8207 -6.3,-6.3 0,-3.4794 2.8206,-6.3 6.3,-6.3 3.47939,0 6.3,2.8206 6.3,6.3 z"
         style="fill:#cbcbcb"
         sodipodi:ry="6.3000002"
         sodipodi:rx="6.3000002"
         sodipodi:cy="3522.7"
         sodipodi:cx="-942.70001"
         id="circle2914"
         r="6.3000002"
         cy="3522.7"
         cx="-942.70001"
         class="st96" />
    </g>
    <g
       transform="matrix(0.78739108,0,0,0.78739108,756.45537,-1736.1955)"
       id="g2916">
      <circle
         d="m -940.30001,3522.7 c 0,1.3254 -1.07452,2.4 -2.4,2.4 -1.32549,0 -2.4,-1.0746 -2.4,-2.4 0,-1.3255 1.07451,-2.4 2.4,-2.4 1.32548,0 2.4,1.0745 2.4,2.4 z"
         style="fill:#989798"
         sodipodi:ry="2.4000001"
         sodipodi:rx="2.4000001"
         sodipodi:cy="3522.7"
         sodipodi:cx="-942.70001"
         id="circle2918"
         r="2.4000001"
         cy="3522.7"
         cx="-942.70001"
         class="st97" />
    </g>
    <g
       transform="matrix(0.78739108,0,0,0.78739108,756.45537,-1736.1955)"
       id="g2920">
      <circle
         d="m -843.99998,3522.7 c 0,8.0633 -6.53664,14.6 -14.6,14.6 -8.06335,0 -14.6,-6.5367 -14.6,-14.6 0,-8.0634 6.53665,-14.6 14.6,-14.6 8.06336,0 14.6,6.5366 14.6,14.6 z"
         style="fill:#010101"
         sodipodi:ry="14.6"
         sodipodi:rx="14.6"
         sodipodi:cy="3522.7"
         sodipodi:cx="-858.59998"
         id="circle2922"
         r="14.6"
         cy="3522.7"
         cx="-858.59998"
         class="st93" />
    </g>
    <g
       transform="matrix(0.78739108,0,0,0.78739108,756.45537,-1736.1955)"
       id="g2924">
      <circle
         d="m -847.39998,3522.7 c 0,6.1855 -5.01441,11.2 -11.2,11.2 -6.18558,0 -11.2,-5.0145 -11.2,-11.2 0,-6.1856 5.01442,-11.2 11.2,-11.2 6.18559,0 11.2,5.0144 11.2,11.2 z"
         style="fill:#4e4e4e"
         sodipodi:ry="11.2"
         sodipodi:rx="11.2"
         sodipodi:cy="3522.7"
         sodipodi:cx="-858.59998"
         id="circle2926"
         r="11.2"
         cy="3522.7"
         cx="-858.59998"
         class="st94" />
    </g>
    <g
       transform="matrix(0.78739108,0,0,0.78739108,756.45537,-1736.1955)"
       id="g2928">
      <circle
         d="m -849.69998,3522.7 c 0,4.9153 -3.98466,8.9 -8.9,8.9 -4.91533,0 -8.9,-3.9847 -8.9,-8.9 0,-4.9154 3.98467,-8.9 8.9,-8.9 4.91534,0 8.9,3.9846 8.9,8.9 z"
         style="fill:#f2f2f2"
         sodipodi:ry="8.8999996"
         sodipodi:rx="8.8999996"
         sodipodi:cy="3522.7"
         sodipodi:cx="-858.59998"
         id="circle2930"
         r="8.8999996"
         cy="3522.7"
         cx="-858.59998"
         class="st95" />
    </g>
    <g
       transform="matrix(0.78739108,0,0,0.78739108,756.45537,-1736.1955)"
       id="g2932">
      <circle
         d="m -852.29998,3522.7 c 0,3.4793 -2.8206,6.3 -6.3,6.3 -3.47939,0 -6.3,-2.8207 -6.3,-6.3 0,-3.4794 2.82061,-6.3 6.3,-6.3 3.4794,0 6.3,2.8206 6.3,6.3 z"
         style="fill:#cbcbcb"
         sodipodi:ry="6.3000002"
         sodipodi:rx="6.3000002"
         sodipodi:cy="3522.7"
         sodipodi:cx="-858.59998"
         id="circle2934"
         r="6.3000002"
         cy="3522.7"
         cx="-858.59998"
         class="st96" />
    </g>
    <g
       transform="matrix(0.78739108,0,0,0.78739108,756.45537,-1736.1955)"
       id="g2936">
      <circle
         d="m -856.19998,3522.7 c 0,1.3254 -1.07451,2.4 -2.4,2.4 -1.32548,0 -2.4,-1.0746 -2.4,-2.4 0,-1.3255 1.07452,-2.4 2.4,-2.4 1.32549,0 2.4,1.0745 2.4,2.4 z"
         style="fill:#989798"
         sodipodi:ry="2.4000001"
         sodipodi:rx="2.4000001"
         sodipodi:cy="3522.7"
         sodipodi:cx="-858.59998"
         id="circle2938"
         r="2.4000001"
         cy="3522.7"
         cx="-858.59998"
         class="st97" />
    </g>
    <g
       transform="matrix(0.78739108,0,0,0.78739108,756.45537,-1736.1955)"
       id="g2940">
      <path
         style="fill:#e5e5e5"
         inkscape:connector-curvature="0"
         id="path2942"
         d="m -943.7,3521.4 c -0.7,0.7 -0.7,1.7 0,2.4 l 0,0 c 0.7,0.7 1.7,0.7 2.4,0 l 17.4,-17.4 c 0.7,-0.7 0.7,-1.7 0,-2.4 l 0,0 c -0.7,-0.7 -1.7,-0.7 -2.4,0 l -17.4,17.4 z"
         class="st98" />
    </g>
    <g
       transform="matrix(0.78739108,0,0,0.78739108,756.45537,-1736.1955)"
       id="g2944"
       style="fill:#dcdcdc">
      <g
         id="g2946"
         style="fill:#dcdcdc">
        <path
           style="fill:#dcdcdc"
           inkscape:connector-curvature="0"
           id="path2948"
           d="m -918.9,3467.9 -2.5,-0.2 c 0,0 -1.6,-3.1 -5.2,-1.1 -3.7,2 -1.4,4.2 0.7,4.5 2.1,0.3 2.5,-0.2 2.5,-0.2 0,0 -2.3,-2.6 0.1,-2.9 2.4,-0.3 2.5,1.6 2.5,1.6 l 3.6,0.1 -1.7,-1.8 z"
           class="st110" />
      </g>
      <g
         id="g2950"
         style="fill:#dcdcdc">
        <path
           style="fill:#dcdcdc"
           inkscape:connector-curvature="0"
           id="path2952"
           d="m -904.8,3451 c -0.7,0.1 -1.7,-1.7 -2.8,15 l -12.5,1.3 c 0,0 3.2,4.2 2.6,6.9 0,0 13,-2.9 14.9,-5.2 1.9,-2.3 5,-18.7 -2.2,-18 z"
           class="st110" />
      </g>
    </g>
    <g
       transform="matrix(0.78739108,0,0,0.78739108,756.45537,-1736.1955)"
       style="fill:#fffafa"
       id="g38">
      <path
         style="fill:#fffafa"
         inkscape:connector-curvature="0"
         id="moto_body"
         d="m -918,3470.8 c 0,0 -3.1,-5.5 -5.7,-5.3 -2.6,0.2 -3.2,3.9 -3.2,3.9 0,0 -1.1,-1.1 -2.6,-1.2 0,0 1.8,5 0,9.2 0,0 1.2,0.3 2.4,-1.3 0,0 2.5,3.2 -1.3,9 -3.8,5.8 -5.5,17.2 -5.5,17.2 0,0 -16.8,-7.3 -24,8.6 0,0 12.4,-8.9 23.1,0 10.8,8.9 6.1,8.8 12.9,10.9 0,0 -0.8,-2.4 -1.9,-3.7 0,0 4.2,5.5 11,5.5 6.8,0 32.3,-0.4 32.3,-0.4 0,0 2.8,-0.3 2.9,-2.3 l 42.9,-0.5 c 0,0 10.5,4.1 -3.4,-13.4 0,0 -3.8,-2.2 -0.6,-6.5 0,0 -1.3,-2.7 -8,-0.6 0,0 -2.4,-6.8 3.4,-8.1 v -1.2 H -871 l -0.1,1.4 c 0,0 -16.6,-2.7 -24.2,-1.4 0,0 13.6,11.8 2.3,25.8 0,0 -3.7,3.9 -26.1,-0.1 0,0 -3.4,-2 -1.2,-16.6 2.2,-14.5 -4.2,-13.8 -4.2,-13.8 l 6.5,-15.1 z"
         class="st60" />
    </g>
    <g
       transform="matrix(0.78739108,0,0,0.78739108,756.45537,-1736.1955)"
       id="g2958">
      <path
         style="fill:#010101"
         inkscape:connector-curvature="0"
         id="path2960"
         d="m -897.1,3484.6 c -2.5,0.3 -3.9,7 2.7,6.6 6.5,-0.5 18.9,0 18.9,0 0,0 7.8,-8.1 1.1,-14 -6.9,-5.9 2.5,4.7 -22.7,7.4 z"
         class="st93" />
    </g>
    <g
       transform="matrix(0.78739108,0,0,0.78739108,756.45537,-1736.1955)"
       id="g2962">
      <path
         style="fill:#010101"
         inkscape:connector-curvature="0"
         id="path2964"
         d="m -869.8,3480.1 c -0.2,1.6 -5.4,11.5 1.1,11 6.5,-0.5 23.7,0.1 23.7,0.1 0,0 7.8,-8.1 1.1,-14 -6.8,-5.9 -25.5,-0.4 -25.9,2.9 z"
         class="st93" />
    </g>
    <g
       transform="matrix(0.78739108,0,0,0.78739108,756.45537,-1736.1955)"
       id="g2966">
      <path
         style="fill:#010101"
         inkscape:connector-curvature="0"
         id="path2968"
         d="m -918.5,3471 c 0,0 -2.3,-1.4 -3.2,0.1 -0.9,1.5 1,2.4 1,2.4 0,0 2.3,-1.5 2.2,-2.5 z"
         class="st93" />
    </g>
    <g
       transform="matrix(0.78739108,0,0,0.78739108,756.45537,-1736.1955)"
       id="g2970">
      <rect
         style="fill:#fed2ab"
         id="rect2972"
         height="3.5999999"
         width="2.3"
         class="st99"
         transform="matrix(-0.8988,0.4384,-0.4384,-0.8988,-176.4685,7066.6855)"
         y="3511.2"
         x="-905.20001" />
    </g>
    <g
       transform="matrix(0.78739108,0,0,0.78739108,756.45537,-1736.1955)"
       id="g2974">
      <path
         style="fill:#e5e5e5"
         inkscape:connector-curvature="0"
         id="path2976"
         d="m -902.3,3514.1 c 0,0 0.5,1 0.6,1.6 0,0 -0.6,1.1 -2.1,0.9 l -0.7,-1.8 c 0.1,0 0.7,0.2 2.2,-0.7 z"
         class="st98" />
    </g>
    <g
       transform="matrix(0.78739108,0,0,0.78739108,756.45537,-1736.1955)"
       id="g2978">
      <path
         style="fill:#b3b3b3"
         inkscape:connector-curvature="0"
         id="path2980"
         d="m -901.8,3515.2 c 0,0 -1.4,0.7 -2.3,0.2 0,0 -2.8,-0.8 -4.3,0.1 -1.5,0.9 -1.3,2.4 -1.3,2.4 0,0 5.7,1.4 8.6,-0.7 0,0 -0.1,-1.9 -0.7,-2 z"
         class="st102" />
    </g>
    <g
       transform="matrix(0.78739108,0,0,0.78739108,756.45537,-1736.1955)"
       id="g2982">
      <rect
         style="fill:#fed2ab"
         id="rect2984"
         height="4"
         width="2.3"
         class="st99"
         transform="matrix(-0.8988,0.4383,-0.4383,-0.8988,-162.375,7060.8682)"
         y="3509.7"
         x="-897.29999" />
    </g>
    <g
       transform="matrix(0.78739108,0,0,0.78739108,756.45537,-1736.1955)"
       id="right_leg">
      <path
         style="fill:#052a46"
         inkscape:connector-curvature="0"
         id="path2988"
         d="m -882.8,3476.2 c 0,0 5.1,1.7 1,4.3 -4,2.6 -21.5,4 -28.1,2.5 0,0 4.5,7.4 4.5,12.7 0,5.2 2.5,15.8 2.5,15.8 0,0 -2.5,1.1 -3.4,2.4 0,0 -10.5,-27.6 -7.9,-32.7 2.6,-5.1 18.7,-6.9 18.7,-6.9 1.7,1.1 7.9,1.6 12.7,1.9 z"
         class="st103" />
    </g>
    <g
       transform="matrix(0.78739108,0,0,0.78739108,756.45537,-1736.1955)"
       id="g2990">
      <path
         style="fill:#3f5879"
         inkscape:connector-curvature="0"
         id="left_leg"
         d="m -880.6,3473.7 c 0,0 3.6,3.8 0,7.1 -3.6,3.2 -18.9,4.4 -25.6,4 0,0 5.6,6.6 6.5,11.8 0.8,5.2 4.5,13.3 4.5,13.3 0,0 -2.3,1.5 -2.9,2.9 0,0 -14.3,-23.6 -12.5,-29.1 1.8,-5.5 17.4,-9.8 17.4,-9.8 1.5,0.8 7.7,0.2 12.6,-0.2 z"
         class="st104"
         inkscape:label="#left_leg" />
    </g>
    <g
       transform="matrix(0.78739108,0,0,0.78739108,756.45537,-1736.1955)"
       id="g2994">
      <path
         style="fill:#fed2ab"
         inkscape:connector-curvature="0"
         id="path2996"
         d="m -884,3468.9 c 0,0 2.8,3.2 3.3,4.7 0,0 -10.9,1.3 -12.6,0.1 0,0.1 5.3,-5.8 9.3,-4.8 z"
         class="st99" />
    </g>
    <g
       transform="matrix(0.78739108,0,0,0.78739108,756.45537,-1736.1955)"
       id="g2998">
      <polygon
         style="fill:#fed2ab"
         id="polygon3000"
         points="-910.1,3446 -914.1,3448.1 -910,3452.7 -906.7,3450.1 "
         class="st99" />
    </g>
    <g
       transform="matrix(0.78739108,0,0,0.78739108,756.45537,-1736.1955)"
       id="g3002">
      <path
         style="fill:#e5e5e5"
         inkscape:connector-curvature="0"
         id="path3004"
         d="m -934.5,3435.3 c 0,0 0.1,11.9 4.8,13.7 0,0 22,-7.3 15.4,-22.8 -6.6,-15.5 -17.1,4.2 -20.2,9.1 z"
         class="st98" />
    </g>
    <g
       transform="matrix(0.78739108,0,0,0.78739108,756.45537,-1736.1955)"
       id="g3006">
      <polygon
         style="fill:#ffffff"
         id="polygon3008"
         points="-913.1,3437.9 -914.2,3441.5 -929.6,3431.3 -926.1,3430.1 "
         class="st60" />
    </g>
    <g
       transform="matrix(0.78739108,0,0,0.78739108,756.45537,-1736.1955)"
       id="g3010">
      <polygon
         style="fill:#ffffff"
         id="polygon3012"
         points="-915.7,3444.5 -922.3,3450.6 -934.5,3434.6 -930.9,3432.5 "
         class="st60" />
    </g>
    <g
       transform="matrix(0.78739108,0,0,0.78739108,756.45537,-1736.1955)"
       inkscape:label="#helmet"
       style="fill:#fffafa"
       id="g69">
      <path
         style="fill:#ff0000"
         inkscape:connector-curvature="0"
         id="helmet"
         d="m -906.2,3445.5 -16.8,10 c 0,0 -7.7,-4.8 -7.5,-7 0,0 12.3,-4 14.5,-13.8 2.3,-10.4 -19,1.6 -19,1.6 0,0 -2.9,-18.2 20.5,-17.1 16.8,0 8.3,26.3 8.3,26.3 z"
         class="st60" />
    </g>
    <g
       transform="matrix(0.78739108,0,0,0.78739108,756.45537,-1736.1955)"
       id="g3018">
      <polygon
         style="fill:#333333"
         id="polygon3020"
         points="-905,3445.4 -923.3,3456.3 -923.8,3455.6 -905.7,3443.9 "
         class="st34" />
    </g>
    <g
       id="body_and_arm"
       inkscape:label="#g16832"
       style="fill:#fffafa"
       transform="matrix(0.1354224,0,0,0.1354224,0.36604157,911.26638)">
      <g
         style="fill:#fffafa"
         id="g3022"
         transform="matrix(5.814334,0,0,5.814334,5583.1926,-19549.661)">
        <path
           class="st60"
           d="m -904,3447.7 c 0,0 3.7,0.2 8.8,3.9 4.5,3.3 1.9,1.9 7.1,7.2 5.8,6.1 6.2,11.6 7.5,14.8 0,0 -1,0 -4.9,0.6 -4.9,0.8 -9.4,-0.1 -9.4,-0.1 0,0 -5.5,-6.6 -8.6,-8.2 -3.2,-1.7 -7.6,-6.9 -7.8,-9.7 -0.2,-2.7 -2.6,-4.3 7.3,-8.5 z"
           id="path3024"
           inkscape:connector-curvature="0"
           style="fill:#fffafa" />
      </g>
      <g
         inkscape:label="#g3026"
         id="left_arm"
         transform="matrix(5.814334,0,0,5.814334,5583.1926,-19549.661)"
         style="fill:#fffafa">
        <g
           id="g3028"
           style="fill:#fffafa">
          <path
             class="st99"
             d="m -911.7,3471.1 -2.5,0.4 c 0,0 -2.3,-2.6 -5.3,0.3 -3,2.9 -0.3,4.5 1.8,4.2 2.2,-0.3 2.4,-0.9 2.4,-0.9 0,0 -2.9,-2 -0.7,-2.8 2.3,-0.8 2.9,0.9 2.9,0.9 l 3.5,-0.8 -2.1,-1.3 z"
             id="path3030"
             inkscape:connector-curvature="0"
             style="fill:#fffafa" />
        </g>
        <g
           id="g3032"
           style="fill:#fffafa">
          <path
             class="st60"
             d="m -902.4,3451.2 c -0.7,0.3 -2.1,-1.2 1.1,15.2 l -11.8,4.4 c 0,0 4.2,3.2 4.2,6 0,0 11.8,-6 13.1,-8.7 1.4,-2.7 0.2,-19.4 -6.6,-16.9 z"
             id="path3034"
             inkscape:connector-curvature="0"
             style="fill:#fffafa" />
        </g>
      </g>
    </g>
    <g
       transform="matrix(0.78739108,0,0,0.78739108,756.45537,-1736.1955)"
       id="g3036">
      <path
         style="fill:#e5e5e5"
         inkscape:connector-curvature="0"
         id="path3038"
         d="m -894.5,3512.6 c 0,0 0.5,1 0.6,1.6 0,0 -0.6,1.1 -2.1,0.9 l -0.7,-1.8 c 0.1,0.1 0.7,0.3 2.2,-0.7 z"
         class="st98" />
    </g>
    <g
       transform="matrix(0.78739108,0,0,0.78739108,756.45537,-1736.1955)"
       id="g3040">
      <path
         style="fill:#b3b3b3"
         inkscape:connector-curvature="0"
         id="path3042"
         d="m -893.9,3514.3 c 0,0 -1.3,0.9 -2.3,0.5 0,0 -2.9,-0.5 -4.2,0.6 -1.3,1.1 -1,2.5 -1,2.5 0,0 5.8,0.8 8.4,-1.7 0.1,0 -0.2,-1.9 -0.9,-1.9 z"
         class="st102" />
    </g>
    <g
       transform="matrix(0.78739108,0,0,0.78739108,756.45537,-1736.1955)"
       id="g3044">
      <circle
         d="m -912.89998,3474.1001 c 0,1.215 -0.98497,2.2 -2.2,2.2 -1.21502,0 -2.2,-0.985 -2.2,-2.2 0,-1.215 0.98498,-2.2 2.2,-2.2 1.21503,0 2.2,0.985 2.2,2.2 z"
         style="fill:#010101"
         sodipodi:ry="2.2"
         sodipodi:rx="2.2"
         sodipodi:cy="3474.1001"
         sodipodi:cx="-915.09998"
         id="circle3046"
         r="2.2"
         cy="3474.1001"
         cx="-915.09998"
         class="st93" />
    </g>
    <g
       transform="matrix(0.78739108,0,0,0.78739108,756.45537,-1736.1955)"
       id="g3048">
      <ellipse
         d="m -927.7,3472.6001 c 0,2.8166 -1.02975,5.1 -2.3,5.1 -1.27025,0 -2.3,-2.2834 -2.3,-5.1 0,-2.8167 1.02975,-5.1 2.3,-5.1 1.27025,0 2.3,2.2833 2.3,5.1 z"
         style="fill:#fcf6b7"
         sodipodi:ry="5.0999999"
         sodipodi:rx="2.3"
         sodipodi:cy="3472.6001"
         sodipodi:cx="-930"
         id="ellipse3050"
         ry="5.0999999"
         rx="2.3"
         cy="3472.6001"
         cx="-930"
         class="st106" />
    </g>
    <g
       transform="matrix(0.78739108,0,0,0.78739108,756.45537,-1736.1955)"
       id="g3052">
      <ellipse
         d="m -837.69998,3503 c 0,1.7121 -0.6268,3.1 -1.4,3.1 -0.77319,0 -1.4,-1.3879 -1.4,-3.1 0,-1.7121 0.62681,-3.1 1.4,-3.1 0.7732,0 1.4,1.3879 1.4,3.1 z"
         style="fill:#faaf3c"
         sodipodi:ry="3.0999999"
         sodipodi:rx="1.4"
         sodipodi:cy="3503"
         sodipodi:cx="-839.09998"
         id="ellipse3054"
         ry="3.0999999"
         rx="1.4"
         cy="3503"
         cx="-839.09998"
         class="st107" />
    </g>
  </g>
  <script>

    <![CDATA[
    function getRandomColor() {
      var letters = '0123456789ABCDEF'.split('');
      var color = '#';
      for (var i = 0; i < 6; i++ ) {
          color += letters[Math.floor(Math.random() * 16)];
      }
      return color;
    };
    randomcolor = getRandomColor();
    var helmet = document.getElementById('helmet');
    helmet.setAttribute('style','fill:'+randomcolor);
    helmet.id = 'helmet'+randomcolor;

    var moto_body = document.getElementById('moto_body');
    moto_body.setAttribute('style','fill:'+randomcolor);
    moto_body.id = 'moto_body'+randomcolor;
      ]]>
  </script>
</svg>
