<?xml version="1.0" encoding="UTF-8" standalone="no"?>
<!-- Created with Inkscape (http://www.inkscape.org/) -->

<svg
   xmlns:dc="http://purl.org/dc/elements/1.1/"
   xmlns:cc="http://creativecommons.org/ns#"
   xmlns:rdf="http://www.w3.org/1999/02/22-rdf-syntax-ns#"
   xmlns:svg="http://www.w3.org/2000/svg"
   xmlns="http://www.w3.org/2000/svg"
   xmlns:sodipodi="http://sodipodi.sourceforge.net/DTD/sodipodi-0.dtd"
   xmlns:inkscape="http://www.inkscape.org/namespaces/inkscape"
   width="100.49363"
   height="100.23026"
   id="svg21386"
   version="1.1"
   inkscape:version="0.48.4 r9939"
   sodipodi:docname="New document 60">
  <defs
     id="defs21388" />
  <sodipodi:namedview
     id="base"
     pagecolor="#ffffff"
     bordercolor="#666666"
     borderopacity="1.0"
     inkscape:pageopacity="0.0"
     inkscape:pageshadow="2"
     inkscape:zoom="5.6"
     inkscape:cx="82.059881"
     inkscape:cy="28.8094"
     inkscape:document-units="px"
     inkscape:current-layer="layer1"
     showgrid="false"
     fit-margin-top="0"
     fit-margin-left="0"
     fit-margin-right="0"
     fit-margin-bottom="0"
     inkscape:window-width="1920"
     inkscape:window-height="1056"
     inkscape:window-x="0"
     inkscape:window-y="24"
     inkscape:window-maximized="1" />
  <metadata
     id="metadata21391">
    <rdf:RDF>
      <cc:Work
         rdf:about="">
        <dc:format>image/svg+xml</dc:format>
        <dc:type
           rdf:resource="http://purl.org/dc/dcmitype/StillImage" />
        <dc:title></dc:title>
      </cc:Work>
    </rdf:RDF>
  </metadata>
  <g
     inkscape:label="Layer 1"
     inkscape:groupmode="layer"
     id="layer1"
     transform="translate(-166.89604,-254.16231)">
    <path
       style="fill:#2aaae2;fill-rule:evenodd"
       inkscape:connector-curvature="0"
       id="sandal"
       d="m 266.20982,268.0355 c 3.51563,6.24752 -0.50045,18.39387 -16.44968,31.51362 -15.96397,13.1044 -21.79073,12.29124 -35.96136,28.98701 -14.17063,16.69577 -24.67361,33.7384 -39.0989,21.93402 -14.46953,-11.85047 -8.48417,-18.71501 15.18666,-47.65468 23.1914,-28.3321 24.27053,-41.20178 41.58942,-46.9888 16.53109,-5.56232 30.08565,3.91978 34.73386,12.20883 z"
       class="st68"
       inkscape:label="#sanda" />
    <path
       style="opacity:0.2;fill:#010101;fill-rule:evenodd"
       inkscape:connector-curvature="0"
       id="path2143"
       d="m 189.89363,316.32508 c 3.69483,-0.23995 4.3506,-5.73863 5.79853,-11.67276 1.36612,-5.61955 3.58238,-10.10705 8.10954,-14.18535 4.17438,-3.76932 19.60626,-7.15548 26.91493,-8.08887 7.30867,-0.9334 11.76716,-3.14559 7.38772,9.82159 -4.36407,12.95243 -8.5971,20.28993 -15.85481,23.86 -7.24235,3.55533 -19.68701,8.14782 -19.85091,12.43674 -0.16452,4.31902 10.61477,-2.03984 22.17015,-10.97312 14.06533,-10.86945 23.3835,-27.42448 21.77495,-37.7743 -0.59877,-3.82273 4.13842,-4.9448 2.54676,-6.63435 -1.65001,-1.78113 -4.52324,3.15967 -5.89891,2.67944 -7.16094,-2.5727 -32.21624,4.44009 -40.28736,12.39109 -9.88547,9.75093 -19.50714,28.60399 -12.81059,28.13989 z"
       class="st69" />
    <path
       style="fill:#ffffff;fill-rule:evenodd"
       inkscape:connector-curvature="0"
       id="path2145"
       d="m 189.89363,316.32508 c 4.32879,0.42076 4.07048,-6.03057 4.63381,-12.88662 0.54049,-6.48001 2.31446,-11.42846 6.88584,-15.46067 4.21861,-3.72321 19.70947,-7.04791 28.16812,-6.78282 8.47339,0.28046 13.32995,-1.51687 10.6165,13.18659 -2.68333,14.70408 -6.29714,22.68691 -14.20356,25.58091 -7.89105,2.87926 -24.24269,3.39995 -23.61107,8.5487 0.63162,5.14875 13.79976,1.98692 25.76795,-6.51613 14.56661,-10.34702 23.32471,-28.22391 19.43033,-40.92524 -1.4244,-4.68319 3.94675,-5.14454 1.75062,-7.46408 -2.31408,-2.44245 -4.74439,2.9292 -6.4739,2.0802 -8.95963,-4.44727 -33.78656,0.98887 -41.8282,8.9706 -9.81113,9.79765 -18.96822,30.94953 -11.13644,31.66856 z"
       class="st70" />
    <path
       style="fill:#cdcccc;fill-rule:evenodd"
       inkscape:connector-curvature="0"
       id="path2147"
       d="m 189.89363,316.32508 c 4.32879,0.42076 4.07048,-6.03057 4.63381,-12.88662 0.54049,-6.48001 2.31446,-11.42846 6.88584,-15.46067 0.53717,-0.4859 1.26972,-0.95271 2.15282,-1.41642 -2.77826,1.07217 -4.67546,2.50893 -11.60495,10.604 -4.97945,9.20466 -7.25348,18.67606 -2.06752,19.15971 l 0,0 z m 19.65362,-32.04987 0,0 0,0 0,0 z"
       class="st71" />
    <path
       style="fill:#cdcccc;fill-rule:evenodd"
       inkscape:connector-curvature="0"
       id="path2149"
       d="m 234.86303,312.04301 -0.0314,0.0596 0.0314,-0.0596 0,0 0,0 z m -0.31228,0.53573 c -2.13863,3.6457 -4.86929,6.05925 -8.51156,7.39972 -7.90641,2.894 -24.24269,3.39994 -23.61107,8.5487 0.5556,4.45439 10.54722,2.68783 20.99034,-3.43701 5.37872,-3.74443 8.165,-7.39182 11.13229,-12.51141 z"
       class="st71" />
  </g>
  <script>

    <![CDATA[
    function getRandomColor() {
      var letters = '0123456789ABCDEF'.split('');
      var color = '#';
      for (var i = 0; i < 6; i++ ) {
          color += letters[Math.floor(Math.random() * 16)];
      }
      return color;
    };
    randomcolor = getRandomColor();
    var sandal = document.getElementById('sandal');
    sandal.setAttribute('style','fill:'+randomcolor);
    sandal.id = 'sandal'+randomcolor;

      ]]>
  </script>
</svg>
