<?xml version="1.0" encoding="UTF-8" standalone="no"?>
<!-- Created with Inkscape (http://www.inkscape.org/) -->

<svg
   xmlns:dc="http://purl.org/dc/elements/1.1/"
   xmlns:cc="http://creativecommons.org/ns#"
   xmlns:rdf="http://www.w3.org/1999/02/22-rdf-syntax-ns#"
   xmlns:svg="http://www.w3.org/2000/svg"
   xmlns="http://www.w3.org/2000/svg"
   xmlns:sodipodi="http://sodipodi.sourceforge.net/DTD/sodipodi-0.dtd"
   xmlns:inkscape="http://www.inkscape.org/namespaces/inkscape"
   width="188.01433"
   height="400.32104"
   id="svg13040"
   version="1.1"
   inkscape:version="0.48.4 r9939"
   sodipodi:docname="sophal-sleeping.svg">
  <defs
     id="defs13042" />
  <sodipodi:namedview
     id="base"
     pagecolor="#ffffff"
     bordercolor="#666666"
     borderopacity="1.0"
     inkscape:pageopacity="0.0"
     inkscape:pageshadow="2"
     inkscape:zoom="1.4"
     inkscape:cx="27.418437"
     inkscape:cy="107.37911"
     inkscape:document-units="px"
     inkscape:current-layer="layer1"
     showgrid="false"
     inkscape:window-width="1920"
     inkscape:window-height="1056"
     inkscape:window-x="0"
     inkscape:window-y="24"
     inkscape:window-maximized="1"
     fit-margin-top="0"
     fit-margin-left="0"
     fit-margin-right="0"
     fit-margin-bottom="0" />
  <metadata
     id="metadata13045">
    <rdf:RDF>
      <cc:Work
         rdf:about="">
        <dc:format>image/svg+xml</dc:format>
        <dc:type
           rdf:resource="http://purl.org/dc/dcmitype/StillImage" />
      </cc:Work>
    </rdf:RDF>
  </metadata>
  <g
     inkscape:label="body"
     inkscape:groupmode="layer"
     id="layer1"
     transform="translate(-19.250053,198.05332)">
    <rect
       style="fill:#95afc8;fill-opacity:1;stroke:#ffffff;stroke-width:2;stroke-miterlimit:4;stroke-opacity:1;stroke-dasharray:none;stroke-dashoffset:0"
       id="rect14408"
       width="292.14285"
       height="448.57144"
       x="-26.821379"
       y="-210.94656" />
    <g
       transform="matrix(0.27941419,0,0,0.27941419,1319.7834,-231.57869)"
       id="g1720">
      <g
         id="g1722">
        <g
           id="XMLID_21_">
          <path
             style="fill:#824a1f"
             inkscape:connector-curvature="0"
             id="path1725"
             d="m -4453.8,528.1 c -7.9,-1.4 -50.1,0.3 -43.7,37.1 5.3,30.5 43.7,30.5 43.7,30.5 v -67.6 z"
             class="st48" />
        </g>
        <g
           id="XMLID_20_">
          <path
             style="fill:#824a1f"
             inkscape:connector-curvature="0"
             id="path1728"
             d="m -4124.1,527.8 v 67.8 c 0,0 43.7,1.3 43.7,-27.8 0,-37.1 -43.7,-40 -43.7,-40 z"
             class="st48" />
        </g>
        <g
           id="XMLID_19_">
          <polygon
             style="fill:#a16330"
             id="polygon1731"
             points="-4463.1,660.5 -4114.8,660.5 -4114.8,268.5 -4459.1,268.5 "
             class="st49" />
        </g>
        <g
           id="XMLID_18_">
          <circle
             d="m -4385,520.09998 c 0,14.63554 -11.8645,26.5 -26.5,26.5 -14.6355,0 -26.5,-11.86446 -26.5,-26.5 0,-14.63555 11.8645,-26.5 26.5,-26.5 14.6355,0 26.5,11.86445 26.5,26.5 z"
             style="fill:#d19b30"
             sodipodi:ry="26.5"
             sodipodi:rx="26.5"
             sodipodi:cy="520.09998"
             sodipodi:cx="-4411.5"
             id="circle1734"
             r="26.5"
             cy="520.09998"
             cx="-4411.5"
             class="st50" />
        </g>
        <g
           id="XMLID_17_">
          <circle
             d="m -4158.2998,520.09998 c 0,14.63554 -11.8645,26.5 -26.5,26.5 -14.6356,0 -26.5,-11.86446 -26.5,-26.5 0,-14.63555 11.8644,-26.5 26.5,-26.5 14.6355,0 26.5,11.86445 26.5,26.5 z"
             style="fill:#d19b30"
             sodipodi:ry="26.5"
             sodipodi:rx="26.5"
             sodipodi:cy="520.09998"
             sodipodi:cx="-4184.7998"
             id="circle1737"
             r="26.5"
             cy="520.09998"
             cx="-4184.7998"
             class="st50" />
        </g>
        <g
           id="XMLID_16_">
          <g
             id="g1740">
            <path
               style="fill:#1d1d1b"
               inkscape:connector-curvature="0"
               id="path1742"
               d="m -4312.1,394.3 c 0.7,5.8 1.2,11.7 1.6,17.5 0.4,5.8 0.9,11.7 1.2,17.5 0.4,5.8 0.7,11.7 0.9,17.5 0.2,5.8 0.5,11.7 0.6,17.5 l -4.3,-4.3 c 6.4,-0.1 12.8,-0.4 19.2,-0.4 6.4,-0.1 12.8,-0.2 19.2,-0.2 l 4.8,0 0.9,0 0.6,0 1.2,0.1 c 0.3,0 0.9,0.1 1.5,0.2 l 1.7,0.4 c 4.1,1.1 7.7,3.4 10.4,6.4 5.4,6 7.4,14 6.6,21.4 -0.4,3.7 -1.6,7.3 -3.2,10.6 -1.6,3.3 -3.9,6.2 -6.4,8.7 -1.2,1.3 -2.6,2.3 -4,3.5 -1.4,1 -2.8,2 -4.3,2.9 -3,1.7 -6.1,3.2 -9.3,4.2 -1.6,0.6 -3.2,1.1 -4.8,1.5 -1.6,0.4 -3.2,0.9 -4.8,1.1 -3.2,0.7 -6.5,1 -9.7,1.3 -3.3,0.2 -6.5,0.3 -9.7,0.2 -1.6,0 -3.2,-0.1 -4.8,-0.2 l -4.8,-0.4 c 3.2,-0.5 6.4,-0.7 9.5,-1.3 1.6,-0.3 3.1,-0.5 4.7,-0.8 l 4.6,-1 c 3.1,-0.7 6.1,-1.5 9,-2.5 1.5,-0.4 2.9,-1 4.4,-1.6 1.5,-0.5 2.8,-1.2 4.2,-1.8 1.4,-0.6 2.7,-1.4 4,-2.1 1.3,-0.7 2.5,-1.6 3.8,-2.4 1.2,-0.8 2.3,-1.8 3.4,-2.7 1,-1 2.1,-2 3,-3.1 1.9,-2.1 3.4,-4.5 4.5,-7 1.1,-2.5 1.8,-5.1 2,-7.7 0.3,-5.2 -1.4,-10.6 -4.7,-14.1 -1.6,-1.7 -3.7,-3 -5.7,-3.5 -0.2,0 -0.4,-0.1 -0.6,-0.1 -0.2,-0.1 -0.4,-0.1 -0.8,-0.1 l -1.2,-0.1 -0.6,0 0,0 c -0.1,0 0.6,0 0.3,0 l -0.1,0 -0.1,0 -0.3,0 -4.8,0 c -6.4,0 -12.8,-0.1 -19.2,-0.2 -6.4,-0.1 -12.8,-0.3 -19.2,-0.4 l -0.2,0 c -2.3,-0.1 -4.2,-2 -4.1,-4.3 0.1,-5.8 0.4,-11.7 0.6,-17.5 0.2,-5.8 0.5,-11.7 0.9,-17.5 0.3,-5.8 0.8,-11.7 1.2,-17.5 0,-6 0.5,-11.8 1.2,-17.7 z"
               class="st51" />
          </g>
        </g>
        <g
           id="XMLID_15_">
          <path
             style="fill:#08090b"
             inkscape:connector-curvature="0"
             id="path1745"
             d="m -4355.8,305.6 c 0,0 80.8,67.5 129.8,67.5 l -11.9,-60.9 c 0,0 46.3,74.1 92.7,101.9 l 11.9,-27.8 18.5,100.6 c 0,0 47.7,-21.2 34.4,-124.5 l 50.3,51.6 c 0,0 6,-86 -50.3,-125.8 l 45.7,-19.9 c 0,0 -41.5,-49 -176.6,-33.1 l 60.7,-58.3 c 0,0 -86.6,-4 -130.7,33.1 l 20.8,-90 c 0,0 -105.9,-4 -158.9,116.5 0,0 -35.1,-39.7 -155.6,31.8 l 76.8,17.2 c 0,0 -67.5,-4 -156.3,88.7 l 75.5,-22.5 c 0,0 -18.5,58.3 0,123.2 l 35.8,-33.8 c 0,0 23.5,98.7 81.3,98.7 l 8,-145.7 c 0.1,0.2 82.2,-13 98.1,-88.5 z"
             class="st52" />
        </g>
        <g
           id="g1747">
          <g
             id="g1749">
            <path
               style="fill:#1d1d1b"
               inkscape:connector-curvature="0"
               id="path1751"
               d="m -4415.7,590 c 62.8,-13 126.6,-20.3 190.7,-21.9 3.2,-0.1 3.2,-5.1 0,-5 -64.5,1.6 -128.8,9 -192,22.1 -3.2,0.6 -1.9,5.4 1.3,4.8 l 0,0 z"
               class="st51" />
          </g>
        </g>
        <g
           id="XMLID_10_">
          <g
             id="g1754">
            <path
               style="fill:#1d1d1b"
               inkscape:connector-curvature="0"
               id="path1756"
               d="m -4428.1,421.9 c 0,0 0.3,-1 1.1,-2.6 0.8,-1.6 2,-3.9 3.8,-6.4 1.8,-2.5 4.1,-5.3 6.9,-8 1.4,-1.3 2.9,-2.7 4.5,-3.9 0.8,-0.6 1.6,-1.3 2.4,-1.9 l 2.6,-1.7 c 1.7,-1.1 3.5,-2.1 5.3,-3.1 1.8,-1 3.7,-1.7 5.5,-2.5 1.8,-0.8 3.6,-1.2 5.3,-1.8 1.7,-0.5 3.3,-0.8 4.9,-1.1 1.5,-0.2 2.9,-0.5 4.2,-0.6 1.3,-0.1 2.4,-0.1 3.3,-0.1 1.8,0 2.8,0.1 2.8,0.1 0,0 -0.9,0.6 -2.5,1.4 -0.8,0.4 -1.7,1 -2.8,1.5 -1.1,0.5 -2.2,1.3 -3.5,2 -1.3,0.7 -2.7,1.4 -4.1,2.3 -1.4,0.8 -3,1.6 -4.5,2.6 -1.5,0.9 -3.2,1.8 -4.7,2.8 -1.6,1 -3.3,1.9 -4.8,3 -1.6,1 -3.2,2.1 -4.8,3.1 -1.6,1.1 -3.1,2.1 -4.6,3.1 -2.9,2.1 -5.7,4 -8.1,5.8 -5,3.6 -8.2,6 -8.2,6 z"
               class="st51" />
          </g>
        </g>
        <g
           id="XMLID_3_">
          <g
             id="g1759">
            <path
               style="fill:#1d1d1b"
               inkscape:connector-curvature="0"
               id="path1761"
               d="m -4231,379.3 c 0,0 1.1,-0.1 3,-0.1 1.9,0 4.6,0.2 7.9,0.6 3.2,0.4 7,1.2 10.9,2.3 3.9,1.1 8,2.6 12,4.3 2,0.9 3.9,1.9 5.8,2.9 1.9,1 3.7,2.2 5.4,3.3 1.7,1.2 3.3,2.4 4.8,3.6 1.4,1.3 2.7,2.5 3.9,3.7 1.1,1.2 2.1,2.4 2.9,3.5 0.9,1 1.4,2.1 1.9,2.9 1,1.7 1.4,2.7 1.4,2.7 0,0 -1,-0.6 -2.6,-1.6 -0.8,-0.5 -1.7,-1.2 -2.8,-1.8 -1.1,-0.6 -2.4,-1.4 -3.7,-2.2 -1.4,-0.7 -2.9,-1.5 -4.4,-2.3 -1.6,-0.8 -3.3,-1.6 -5,-2.5 -1.8,-0.8 -3.5,-1.7 -5.4,-2.5 -1.9,-0.8 -3.7,-1.8 -5.6,-2.5 -3.8,-1.7 -7.6,-3.4 -11.1,-5 -3.6,-1.6 -6.9,-3.1 -9.8,-4.5 -2.9,-1.3 -5.3,-2.6 -7,-3.4 -1.5,-0.9 -2.5,-1.4 -2.5,-1.4 z"
               class="st51" />
          </g>
        </g>
      </g>
      <g
         id="g1763">
        <polygon
           style="fill:#a16330"
           id="polygon1765"
           points="-4301.8,785.3 -4382.6,740.5 -4360.1,696.6 -4357.3,634 -4301.8,639.6 "
           class="st49" />
        <polygon
           style="fill:#a16330"
           id="polygon1767"
           points="-4301.8,785.3 -4221,740.5 -4243.4,696.6 -4246.2,634 -4301.8,639.6 "
           class="st49" />
        <path
           style="fill:#a16330"
           inkscape:connector-curvature="0"
           id="path1769"
           d="m -4535.7,842.3 -65.4,265.2 c 0,0 -26.1,41.1 -20.5,71 5.6,29.9 48.5,54.2 65.3,0 0,0 13.1,13.1 20.6,5.6 7.5,-7.5 1.9,-37.4 0,-50.4 -1.9,-13 74.7,-267.1 74.7,-267.1 l -74.7,-24.3 z"
           class="st49" />
        <path
           style="fill:#a16330"
           inkscape:connector-curvature="0"
           id="path1771"
           d="m -4301.7,758.2 c -28.5,0 -57.9,-15.9 -57.9,-61.6 0,0 -89.6,0 -113.9,0 -24.3,0 -67,165.1 -67,165.1 l 79.5,4.8 -5.1,278.3 h 164.3 c 0.1,0 0.1,-283.8 0.1,-386.6 z"
           class="st49" />
        <polygon
           style="fill:#45556b"
           id="polygon1773"
           points="-4301.7,1266.2 -4301.7,1144.8 -4466.1,1144.8 -4428.7,1522.1 -4344.7,1522.1 -4322.3,1266.2 "
           class="st54" />
        <path
           inkscape:connector-curvature="0"
           id="path1775"
           d="m -4327.4,1538.6 c -5.8,-25.4 -29,-44.4 -57,-44.4 -27.9,0 -51.2,19 -57,44.4 h 114 z" />
        <rect
           style="fill:#808285"
           id="rect1777"
           height="14.7"
           width="119.5"
           class="st55"
           y="1538"
           x="-4444.2002" />
        <path
           style="fill:#a16330"
           inkscape:connector-curvature="0"
           id="path1779"
           d="m -4068.3,842.3 65.4,265.2 c 0,0 26.1,41.1 20.5,71 -5.6,29.9 -48.5,54.2 -65.3,0 0,0 -13.1,13.1 -20.6,5.6 -7.5,-7.5 -1.9,-37.4 0,-50.4 1.9,-13.1 -74.7,-267.1 -74.7,-267.1 l 74.7,-24.3 z"
           class="st49" />
        <path
           style="fill:#a16330"
           inkscape:connector-curvature="0"
           id="path1781"
           d="m -4301.8,758.2 c 28.5,0 57.9,-15.9 57.9,-61.6 0,0 89.6,0 113.9,0 24.3,0 67.6,164.8 67.6,164.8 l -80.7,5.2 5.6,278.3 h -164.3 c 0,-0.1 0,-283.9 0,-386.7 z"
           class="st49" />
        <polygon
           style="fill:#45556b"
           id="polygon1783"
           points="-4301.8,1266.2 -4301.8,1144.8 -4137.4,1144.8 -4174.8,1522.1 -4258.8,1522.1 -4281.3,1266.2 "
           class="st54" />
        <path
           inkscape:connector-curvature="0"
           id="path1785"
           d="m -4276.6,1538.6 c 5.8,-25.4 29,-44.4 57,-44.4 27.9,0 51.2,19 57,44.4 h -114 z" />
        <rect
           style="fill:#808285"
           id="rect1787"
           height="14.7"
           width="119.5"
           class="st55"
           y="1538"
           x="-4279.3999" />
        <rect
           style="fill:#162f42"
           id="rect1789"
           height="27.1"
           width="329.20001"
           class="st56"
           y="1117.8"
           x="-4466.6001" />
      </g>
      <g
         id="g1791">
        <g
           id="XMLID_9_">
          <circle
             d="m -4395.8,842.29999 c 0,5.08102 -4.119,9.2 -9.2,9.2 -5.081,0 -9.2,-4.11898 -9.2,-9.2 0,-5.08102 4.119,-9.2 9.2,-9.2 5.081,0 9.2,4.11898 9.2,9.2 z"
             style="fill:#181412"
             sodipodi:ry="9.1999998"
             sodipodi:rx="9.1999998"
             sodipodi:cy="842.29999"
             sodipodi:cx="-4405"
             id="circle1794"
             r="9.1999998"
             cy="842.29999"
             cx="-4405"
             class="st57" />
        </g>
        <g
           id="XMLID_13_">
          <circle
             d="m -4189.8,842.29999 c 0,5.08102 -4.119,9.2 -9.2,9.2 -5.081,0 -9.2,-4.11898 -9.2,-9.2 0,-5.08102 4.119,-9.2 9.2,-9.2 5.081,0 9.2,4.11898 9.2,9.2 z"
             style="fill:#181412"
             sodipodi:ry="9.1999998"
             sodipodi:rx="9.1999998"
             sodipodi:cy="842.29999"
             sodipodi:cx="-4199"
             id="circle1797"
             r="9.1999998"
             cy="842.29999"
             cx="-4199"
             class="st57" />
        </g>
      </g>
    </g>
  </g>
  <g
     inkscape:groupmode="layer"
     id="eyes_open"
     inkscape:label="eyes_open"
     style="display:none"
     transform="translate(-19.250053,198.05332)">
    <g
       transform="matrix(0.27941419,0,0,0.27941419,575.75927,-227.87845)"
       id="XMLID_26_">
      <circle
         d="m -1700.5,434.29999 c 0,6.90356 -5.5964,12.5 -12.5,12.5 -6.9036,0 -12.5,-5.59644 -12.5,-12.5 0,-6.90356 5.5964,-12.5 12.5,-12.5 6.9036,0 12.5,5.59644 12.5,12.5 z"
         style="fill:#0a0d0f"
         sodipodi:ry="12.5"
         sodipodi:rx="12.5"
         sodipodi:cy="434.29999"
         sodipodi:cx="-1713"
         id="circle1665"
         r="12.5"
         cy="434.29999"
         cx="-1713"
         class="st53" />
    </g>
    <circle
       transform="matrix(0.27941419,0,0,0.27941419,575.75927,-227.87845)"
       style="fill:#0a0d0f"
       sodipodi:ry="12.5"
       sodipodi:rx="12.5"
       sodipodi:cy="434.29999"
       sodipodi:cx="-1548.9"
       id="circle1668"
       r="12.5"
       cy="434.29999"
       cx="-1548.9"
       class="st53"
       d="m -1536.4,434.29999 c 0,6.90356 -5.5965,12.5 -12.5,12.5 -6.9036,0 -12.5,-5.59644 -12.5,-12.5 0,-6.90356 5.5964,-12.5 12.5,-12.5 6.9035,0 12.5,5.59644 12.5,12.5 z" />
  </g>
  <g
     inkscape:groupmode="layer"
     id="eyes_closed"
     inkscape:label="eyes_closed"
     style="display:inline"
     transform="translate(-19.250053,198.05332)">
    <g
       transform="matrix(0.27941419,0,0,0.27941419,1320.7095,-228.36773)"
       id="g1799">
      <g
         id="g1801">
        <path
           style="fill:#0a0d0f"
           inkscape:connector-curvature="0"
           id="path1803"
           d="m -4406.3,431.5 c 1.3,14.6 12.1,27.7 26.8,30.5 14.5,2.8 29.7,-5.1 36.3,-18.3 1.4,-2.9 -2.9,-5.4 -4.3,-2.5 -5.6,11.1 -18.2,18.2 -30.6,16 -12.4,-2.3 -22,-13.3 -23.1,-25.7 -0.4,-3.1 -5.4,-3.2 -5.1,0 l 0,0 z"
           class="st53" />
      </g>
    </g>
    <g
       transform="matrix(0.27941419,0,0,0.27941419,1320.7095,-228.36773)"
       id="g1805">
      <g
         id="g1807">
        <path
           style="fill:#0a0d0f"
           inkscape:connector-curvature="0"
           id="path1809"
           d="m -4184.6,431.5 c -1.1,12.4 -10.7,23.4 -23.1,25.7 -12.5,2.3 -25.1,-4.9 -30.6,-16 -1.4,-2.9 -5.8,-0.3 -4.3,2.5 6.6,13.1 21.7,21.1 36.3,18.3 14.6,-2.8 25.4,-16 26.8,-30.5 0.2,-3.2 -4.8,-3.1 -5.1,0 l 0,0 z"
           class="st53" />
      </g>
    </g>
  </g>
</svg>
